# Blender v2.80 (sub 48) OBJ File: 'fish_draw_base.blend'
# www.blender.org
mtllib aquarium.mtl
o Circle
v -0.831470 0.555570 0.000000
v -0.923880 0.382683 0.000000
v -0.980785 0.195090 0.000000
v -1.000000 0.000000 0.000000
v -0.980785 -0.195090 -0.000000
v -0.923880 -0.382683 -0.000000
v -0.831470 -0.555570 -0.000000
v -0.707107 -0.675269 -0.000000
v -0.555570 -0.741861 -0.000000
v -0.382683 -0.792449 -0.000000
v -0.195090 -0.823601 -0.000000
v 0.000000 -0.823601 -0.000000
v 0.195091 -0.823601 -0.000000
v 0.382684 -0.792449 -0.000000
v 0.555571 -0.741861 -0.000000
v 0.707107 -0.675269 -0.000000
v 0.831470 -0.555570 -0.000000
v 0.923880 -0.382683 -0.000000
v 0.980785 -0.195089 -0.000000
v 1.000000 0.000001 0.000000
v 0.980785 0.195091 0.000000
v 0.923879 0.382684 0.000000
v 0.831469 0.555571 0.000000
v -0.593907 0.519118 0.000000
v -0.356344 0.500893 0.000000
v -0.118782 0.492539 0.000000
v 0.118781 0.492539 0.000000
v 0.356344 0.500893 0.000000
v 0.593906 0.519119 0.000000
v 0.593942 0.592253 0.000000
v 0.356397 0.610709 0.000000
v 0.118842 0.619293 0.000000
v -0.118720 0.619523 0.000000
v -0.356291 0.611400 0.000000
v -0.593871 0.593404 0.000000
vt 0.000000 0.000000
vt 0.000000 0.000000
vt 0.000000 0.000000
vt 0.000000 0.000000
vt 0.000000 0.000000
vt 0.000000 0.000000
vt 0.000000 0.000000
vt 0.000000 0.000000
vt 0.000000 0.000000
vt 0.000000 0.000000
vt 0.000000 0.000000
vt 0.000000 0.000000
vt 0.000000 0.000000
vt 0.000000 0.000000
vt 0.000000 0.000000
vt 0.000000 0.000000
vt 0.000000 0.000000
vt 0.000000 0.000000
vt 0.000000 0.000000
vt 0.000000 0.000000
vt 0.000000 0.000000
vt 0.000000 0.000000
vt 0.000000 0.000000
vt 0.000000 0.000000
vt 0.000000 0.000000
vt 0.000000 0.000000
vt 0.000000 0.000000
vt 0.000000 0.000000
vt 0.000000 0.000000
vt 0.000000 0.000000
vt 0.000000 0.000000
vt 0.000000 0.000000
vt 0.000000 0.000000
vt 0.000000 0.000000
vt 0.000000 0.000000
vn 0.0000 -0.0000 1.0000
usemtl Material.002
s off
f 2/1/1 3/2/1 4/3/1 5/4/1 6/5/1 7/6/1 8/7/1 9/8/1 10/9/1 11/10/1 12/11/1 13/12/1 14/13/1 15/14/1 16/15/1 17/16/1 18/17/1 19/18/1 20/19/1 21/20/1 22/21/1 23/22/1 29/23/1 28/24/1 27/25/1 26/26/1 25/27/1 24/28/1 1/29/1
usemtl Material.001
f 29/23/1 23/22/1 30/30/1 31/31/1 32/32/1 33/33/1 34/34/1 35/35/1 1/29/1 24/28/1 25/27/1 26/26/1 27/25/1 28/24/1
